{"title":"Kaagaz Ke Fools (2015) S-Cam Rip - MP4 - [500MB] - Team IcTv Exc","uid":11874725,"size":553681048,"categoryP":"video","categoryS":"other","magnet":"?xt=urn:btih:e8a59a6d50cbcf6083ed38063a2e0eadf1b87ab1&amp;dn=Kaagaz+Ke+Fools+%282015%29+S-Cam+Rip+-+MP4+-+%5B500MB%5D+-+Team+IcTv+Exc&amp;tr=udp%3A%2F%2Ftracker.openbittorrent.com%3A80&amp;tr=udp%3A%2F%2Fopen.demonii.com%3A1337&amp;tr=udp%3A%2F%2Ftracker.coppersurfer.tk%3A6969&amp;tr=udp%3A%2F%2Fexodus.desync.com%3A6969","seeders":2,"leechers":1,"uploader":"juggs99","files":3,"time":1430507894,"description":"Kaagaz Ke Fools (2015) S-Cam Rip - MP4 - [500MB] - Team IcTv Exclusive -={SPARROW}=-\n\nPoster : - http://imgsparrow.co/image/JI\n\nInfo : - \n\nAll Credit Goes To Intellect Clever &amp; IcTv\nIts a CAM So don't compare with BluRay ;)\nSample Within Torrent\n\nMovie Info\nYear : 2015\nCast : vinay pathak\nVideo: AVC\nAudio : AAC\nGenre : Drama\nSubtitles : None\nResolution : 640 x 272\nRuntime : 1hr 40min xx\nSource : Team IcTv\n\nFormat                      : MPEG-4\nFormat profile              : Base Media / Version 2\nCodec ID                    : mp42\nFile size                   : 518 MiB\nDuration                    : 1h 40mn\nOverall bit rate mode       : Variable\nOverall bit rate            : 718 Kbps\nWriting application         : HandBrake 0.10.0 2014112200\n\nVideo\nID                          : 1\nFormat                      : AVC\nFormat/Info                 : Advanced Video Codec\nFormat profile              : &lt;a class=&quot;__cf_email__&quot; href=&quot;/cdn-cgi/l/email-protection&quot; data-cfemail=&quot;e5a8848c8ba5a9d1cbd5&quot;&gt;[email&amp;#160;protected]&lt;/a&gt;&lt;script cf-hash='f9e31' type=&quot;text/javascript&quot;&gt;\n/* &lt;![CDATA[ */!function(){try{var t=&quot;currentScript&quot;in document?document.currentScript:function(){for(var t=document.getElementsByTagName(&quot;script&quot;),e=t.length;e--;)if(t[e].getAttribute(&quot;cf-hash&quot;))return t[e]}();if(t&amp;&amp;t.previousSibling){var e,r,n,i,c=t.previousSibling,a=c.getAttribute(&quot;data-cfemail&quot;);if(a){for(e=&quot;&quot;,r=parseInt(a.substr(0,2),16),n=2;a.length-n;n+=2)i=parseInt(a.substr(n,2),16)^r,e+=String.fromCharCode(i);e=document.createTextNode(e),c.parentNode.replaceChild(e,c)}}}catch(u){}}();/* ]]&gt; */&lt;/script&gt;\nFormat settings, CABAC      : Yes\nFormat settings, ReFrames   : 4 frames\nCodec ID                    : avc1\nCodec ID/Info               : Advanced Video Coding\nDuration                    : 1h 40mn\nBit rate                    : 550 Kbps\nWidth                       : 640 pixels\nHeight                      : 354 pixels\nDisplay aspect ratio        : 2.142\nOriginal display aspect rat : 2.143\nFrame rate mode             : Variable\nFrame rate                  : 25.000 fps\nMinimum frame rate          : 7.493 fps\nMaximum frame rate          : 29.970 fps\nColor space                 : YUV\nChroma subsampling          : 4:2:0\nBit depth                   : 8 bits\nScan type                   : Progressive\nBits/(Pixel*Frame)          : 0.097\nStream size                 : 397 MiB (77%)\nWriting library             : x264 core 142 r2479 dd79a61\nColor primaries             : BT.601 NTSC\nTransfer characteristics    : BT.709\nMatrix coefficients         : BT.601\nColor range                 : Limited\n\nAudio\nID                          : 2\nFormat                      : AAC\nFormat/Info                 : Advanced Audio Codec\nFormat profile              : LC\nCodec ID                    : 40\nDuration                    : 1h 40mn\nBit rate mode               : Variable\nBit rate                    : 161 Kbps\nChannel(s)                  : 2 channels\nChannel positions           : Front: L R\nSampling rate               : 48.0 KHz\nCompression mode            : Lossy\nStream size                 : 116 MiB (22%)\n\nScreens : - \n &lt;a href=&quot;\nhttp://imgsparrow.co/image/JP&quot; rel=&quot;nofollow&quot; target=&quot;_NEW&quot;&gt;\nhttp://imgsparrow.co/image/JP&lt;/a&gt; &lt;a href=&quot;\nhttp://imgsparrow.co/image/JW&quot; rel=&quot;nofollow&quot; target=&quot;_NEW&quot;&gt;\nhttp://imgsparrow.co/image/JW&lt;/a&gt; &lt;a href=&quot;\nhttp://imgsparrow.co/image/JX&quot; rel=&quot;nofollow&quot; target=&quot;_NEW&quot;&gt;\nhttp://imgsparrow.co/image/JX&lt;/a&gt; &lt;a href=&quot;\nhttp://imgsparrow.co/image/JY&quot; rel=&quot;nofollow&quot; target=&quot;_NEW&quot;&gt;\nhttp://imgsparrow.co/image/JY&lt;/a&gt; &lt;a href=&quot;\nhttp://imgsparrow.co/image/Jc&quot; rel=&quot;nofollow&quot; target=&quot;_NEW&quot;&gt;\nhttp://imgsparrow.co/image/Jc&lt;/a&gt; &lt;a href=&quot;\nhttp://imgsparrow.co/image/Jd&quot; rel=&quot;nofollow&quot; target=&quot;_NEW&quot;&gt;\nhttp://imgsparrow.co/image/Jd&lt;/a&gt; &lt;a href=&quot;\nhttp://imgsparrow.co/image/Jo&quot; rel=&quot;nofollow&quot; target=&quot;_NEW&quot;&gt;\nhttp://imgsparrow.co/image/Jo&lt;/a&gt; &lt;a href=&quot;\nhttp://imgsparrow.co/image/JM&quot; rel=&quot;nofollow&quot; target=&quot;_NEW&quot;&gt;\nhttp://imgsparrow.co/image/JM&lt;/a&gt; &lt;a href=&quot;\nhttp://imgsparrow.co/image/Jm&quot; rel=&quot;nofollow&quot; target=&quot;_NEW&quot;&gt;\nhttp://imgsparrow.co/image/Jm&lt;/a&gt; &lt;a href=&quot;\nhttp://imgsparrow.co/image/JF&quot; rel=&quot;nofollow&quot; target=&quot;_NEW&quot;&gt;\nhttp://imgsparrow.co/image/JF&lt;/a&gt;\n &lt;a href=&quot;\nhttp://imgsparrow.co/image/N2&quot; rel=&quot;nofollow&quot; target=&quot;_NEW&quot;&gt;\nhttp://imgsparrow.co/image/N2&lt;/a&gt;","torrent":{"xt":"urn:btih:e8a59a6d50cbcf6083ed38063a2e0eadf1b87ab1","amp;dn":"Kaagaz+Ke+Fools+%282015%29+S-Cam+Rip+-+MP4+-+%5B500MB%5D+-+Team+IcTv+Exc","amp;tr":["udp%3A%2F%2Ftracker.openbittorrent.com%3A80","udp%3A%2F%2Fopen.demonii.com%3A1337","udp%3A%2F%2Ftracker.coppersurfer.tk%3A6969","udp%3A%2F%2Fexodus.desync.com%3A6969"],"infoHash":"e8a59a6d50cbcf6083ed38063a2e0eadf1b87ab1","infoHashBuffer":{"type":"Buffer","data":[232,165,154,109,80,203,207,96,131,237,56,6,58,46,14,173,241,184,122,177]},"announce":[],"urlList":[]}}